<svg xmlns="http://www.w3.org/2000/svg" viewBox="0 0 512 512"><rect width="512" height="512" rx="96" fill="#080b12"/><g><line x1="81.1" y1="166.9" x2="81.1" y2="228.9" stroke="#18b271" stroke-width="4.8" stroke-linecap="round"/><rect x="71.9" y="171.7" width="18.5" height="45.9" rx="4.5" fill="#18b271"/><line x1="81.1" y1="303.0" x2="81.1" y2="342.4" stroke="#18b271" stroke-width="4.8" stroke-linecap="round"/><rect x="71.9" y="306.1" width="18.5" height="29.1" rx="4.5" fill="#18b271"/><line x1="111.4" y1="141.2" x2="111.4" y2="253.1" stroke="#12a565" stroke-width="4.8" stroke-linecap="round"/><rect x="102.1" y="151.8" width="18.5" height="76.5" rx="4.5" fill="#12a565"/><line x1="111.4" y1="300.0" x2="111.4" y2="362.0" stroke="#12a565" stroke-width="4.8" stroke-linecap="round"/><rect x="102.1" y="305.9" width="18.5" height="42.4" rx="4.5" fill="#12a565"/><line x1="141.6" y1="133.6" x2="141.6" y2="171.4" stroke="#c22648" stroke-width="4.8" stroke-linecap="round"/><rect x="132.4" y="146.9" width="18.5" height="16.4" rx="4.5" fill="#c22648"/><line x1="141.6" y1="218.3" x2="141.6" y2="263.7" stroke="#c22648" stroke-width="4.8" stroke-linecap="round"/><rect x="132.4" y="234.3" width="18.5" height="19.7" rx="4.5" fill="#c22648"/><line x1="141.6" y1="330.3" x2="141.6" y2="368.1" stroke="#c22648" stroke-width="4.8" stroke-linecap="round"/><rect x="132.4" y="343.6" width="18.5" height="16.4" rx="4.5" fill="#c22648"/><line x1="171.9" y1="133.6" x2="171.9" y2="166.9" stroke="#18b271" stroke-width="4.8" stroke-linecap="round"/><rect x="162.6" y="135.2" width="18.5" height="27.9" rx="4.5" fill="#18b271"/><line x1="171.9" y1="227.4" x2="171.9" y2="269.8" stroke="#18b271" stroke-width="4.8" stroke-linecap="round"/><rect x="162.6" y="229.4" width="18.5" height="35.6" rx="4.5" fill="#18b271"/><line x1="171.9" y1="333.3" x2="171.9" y2="369.6" stroke="#18b271" stroke-width="4.8" stroke-linecap="round"/><rect x="162.6" y="335.0" width="18.5" height="30.5" rx="4.5" fill="#18b271"/><line x1="202.1" y1="135.1" x2="202.1" y2="180.5" stroke="#dd4076" stroke-width="4.8" stroke-linecap="round"/><rect x="192.9" y="142.9" width="18.5" height="32.8" rx="4.5" fill="#dd4076"/><line x1="202.1" y1="233.5" x2="202.1" y2="280.4" stroke="#dd4076" stroke-width="4.8" stroke-linecap="round"/><rect x="192.9" y="241.5" width="18.5" height="33.9" rx="4.5" fill="#dd4076"/><line x1="202.1" y1="325.7" x2="202.1" y2="366.6" stroke="#dd4076" stroke-width="4.8" stroke-linecap="round"/><rect x="192.9" y="332.8" width="18.5" height="29.5" rx="4.5" fill="#dd4076"/><line x1="232.4" y1="145.7" x2="232.4" y2="194.1" stroke="#c22648" stroke-width="4.8" stroke-linecap="round"/><rect x="223.1" y="159.3" width="18.5" height="26.6" rx="4.5" fill="#c22648"/><line x1="232.4" y1="244.0" x2="232.4" y2="357.5" stroke="#c22648" stroke-width="4.8" stroke-linecap="round"/><rect x="223.1" y="275.8" width="18.5" height="62.3" rx="4.5" fill="#c22648"/><line x1="262.7" y1="277.3" x2="262.7" y2="324.2" stroke="#18b271" stroke-width="4.8" stroke-linecap="round"/><rect x="253.4" y="279.4" width="18.5" height="39.9" rx="4.5" fill="#18b271"/></g><g><line x1="266.0" y1="143.9" x2="266.0" y2="181.7" stroke="#18b271" stroke-width="4.8" stroke-linecap="round"/><rect x="256.8" y="145.6" width="18.4" height="32.1" rx="4.5" fill="#18b271"/><line x1="296.2" y1="143.9" x2="296.2" y2="181.7" stroke="#c22648" stroke-width="4.8" stroke-linecap="round"/><rect x="287.0" y="157.9" width="18.4" height="15.3" rx="4.5" fill="#c22648"/><line x1="326.5" y1="143.9" x2="326.5" y2="373.8" stroke="#c22648" stroke-width="4.8" stroke-linecap="round"/><rect x="317.3" y="211.8" width="18.4" height="120.5" rx="4.5" fill="#c22648"/><line x1="356.7" y1="143.9" x2="356.7" y2="375.4" stroke="#12a565" stroke-width="4.8" stroke-linecap="round"/><rect x="347.5" y="165.2" width="18.4" height="160.4" rx="4.5" fill="#12a565"/><line x1="387.0" y1="143.9" x2="387.0" y2="181.7" stroke="#c22648" stroke-width="4.8" stroke-linecap="round"/><rect x="377.8" y="155.8" width="18.4" height="18.6" rx="4.5" fill="#c22648"/><line x1="417.3" y1="143.9" x2="417.3" y2="181.7" stroke="#0e9358" stroke-width="4.8" stroke-linecap="round"/><rect x="408.1" y="149.6" width="18.4" height="18.9" rx="4.5" fill="#0e9358"/><line x1="447.5" y1="145.4" x2="447.5" y2="181.7" stroke="#18b271" stroke-width="4.8" stroke-linecap="round"/><rect x="438.3" y="147.4" width="18.4" height="29.8" rx="4.5" fill="#18b271"/></g></svg>